# xmcd CD database file
#
# Track frame offsets:
#	150
#	13853
#	34396
#	50413
#	65142
#	81561
#	108672
#	123443
#	135656
#	154305
#	170684
#	188229
#	201372
#	216571
#	230830
#	244797
#	261820
#	279771
#	291660
#	313413
#
# Disc length: 4383 seconds
#
# Revision: 1
# Processed by: cddbd v1.5.2PL0 Copyright (c) Steve Scherf et al.
# Submitted via: CDex 1.51
#
DISCID=4e111d14
DTITLE=Various Artist - Top DJ's Picks Classic Country Volume 1 Disc 3 of 4
DYEAR=1988
DGENRE=Country
TTITLE0=Marina Del Rey/George Strait
TTITLE1=Social Call/Hank Williams Jr.
TTITLE2=You Brought Me Down To Earth/Hank Williams Jr.
TTITLE3=Take The Long Way Home/John Schneider
TTITLE4=Fast Lanes And Country Roads/Barbara Mandrell
TTITLE5=Cosmic Cowboy/Michael Martin Murphey
TTITLE6=There Ain't No Good Chain Gang/Waylon Jennings,Johnny Cash
TTITLE7=Wild Turkey/Lacy J. Dalton
TTITLE8=I'll Think of Something/Mark Chesnutt
TTITLE9=You Plant Your Fields/Dan Seals
TTITLE10=A Soft Place To Fall/Allison Moorer
TTITLE11=Tennessee Stud/Johnny Cash
TTITLE12=Fishin' in the Dark/Nitty Gritty Dirt Band
TTITLE13=Billy The Kid/Billy Dean
TTITLE14=On The Other Hand/Randy Travis
TTITLE15=Little Dust On The Bottle/David Lee Murphy
TTITLE16=Dixieland Delight/Alabama
TTITLE17=Highway Patrol/Junior Brown
TTITLE18=Strawberry Wine/Deana Carter
TTITLE19=I Don't Know/Hank Williams III
EXTD=YEAR: 1988
EXTT0=
EXTT1=
EXTT2=
EXTT3=
EXTT4=
EXTT5=
EXTT6=
EXTT7=
EXTT8=
EXTT9=
EXTT10=
EXTT11=
EXTT12=
EXTT13=
EXTT14=
EXTT15=
EXTT16=
EXTT17=
EXTT18=
EXTT19=
PLAYORDER=
